<?xml version="1.0" encoding="UTF-8" standalone="no"?>
<svg width="12px" height="13px" viewBox="0 0 12 13" version="1.1" xmlns="http://www.w3.org/2000/svg" xmlns:xlink="http://www.w3.org/1999/xlink">
    <!-- Generator: Sketch 3.7.1 (28215) - http://www.bohemiancoding.com/sketch -->
    <title>Rectangle 348</title>
    <desc>Created with Sketch.</desc>
    <defs></defs>
    <g id="Page-1" stroke="none" stroke-width="1" fill="none" fill-rule="evenodd">
        <g id="03.Desktop-Map-MR-HYDE-Active-search--details" transform="translate(-1374.000000, -96.000000)" fill="#FFFFFF">
            <g id="DETAILS" transform="translate(809.000000, 87.000000)">
                <g id="BTN-CLOSE" transform="translate(556.000000, 0.000000)">
                    <path d="M14.9893993,16.8092044 L11.0246491,20.7739547 C10.6646471,21.1339567 10.0703415,21.1346701 9.70422495,20.7685536 C9.33555593,20.3998845 9.33735181,19.8096015 9.70253499,19.4444183 L13.6635741,15.4833792 L9.69773063,11.5175358 C9.33928592,11.1590911 9.33810848,10.5643215 9.704225,10.1982049 C10.072894,9.82953591 10.6631771,9.83133178 11.0283602,10.196515 L14.9893993,14.157554 L18.9504384,10.1965149 C19.3179171,9.82903623 19.9084571,9.83208836 20.2745736,10.1982049 C20.6432427,10.5668739 20.6409217,11.157682 20.2750909,11.5235128 L19.308932,12.4896717 L16.3152245,15.4833792 L20.2762635,19.4444182 C20.6437421,19.8118969 20.64069,20.4024369 20.2745736,20.7685535 C19.9059046,21.1372226 19.3142371,21.1340423 18.947346,20.7671512 L17.2904149,19.11022 C16.523895,18.3437001 15.5246347,17.3444399 14.5041011,16.3239063 L14.9893993,16.8092044 Z" id="Rectangle-348"></path>
                </g>
            </g>
        </g>
    </g>
</svg>