<svg xmlns:rdf="http://www.w3.org/1999/02/22-rdf-syntax-ns#" xmlns="http://www.w3.org/2000/svg" xml:space="preserve" height="100%" width="100%" xmlns:cc="http://creativecommons.org/ns#" xmlns:dc="http://purl.org/dc/elements/1.1/" viewBox="0 0 100 100"><metadata><rdf:RDF><cc:Work rdf:about=""><dc:format>image/svg+xml</dc:format><dc:type rdf:resource="http://purl.org/dc/dcmitype/StillImage"/><dc:title/></cc:Work></rdf:RDF></metadata><path d="M50,0c-27.57,0-50,22.43-50,50,0,27.569,22.43,50,50,50s50-22.431,50-50c0-27.57-22.43-50-50-50zm4.032,91.737v-13.511h-8.064v13.512c-19.911-1.909-35.797-17.795-37.705-37.706h13.512v-8.064h-13.512c1.909-19.911,17.794-35.796,37.705-37.705v13.511h8.064v-13.511c19.911,1.908,35.797,17.793,37.705,37.705h-13.511v8.064h13.512c-1.909,19.911-17.795,35.797-37.706,37.705z"/></svg>
