<?xml version="1.0" encoding="UTF-8" standalone="no"?>
<svg width="16px" height="16px" viewBox="0 0 16 16" version="1.1" xmlns="http://www.w3.org/2000/svg" xmlns:xlink="http://www.w3.org/1999/xlink">
    <!-- Generator: Sketch 3.6.1 (26313) - http://www.bohemiancoding.com/sketch -->
    <title>Shape</title>
    <desc>Created with Sketch.</desc>
    <defs></defs>
    <g id="Page-1" stroke="none" stroke-width="1" fill="none" fill-rule="evenodd">
        <g id="04.Desktop-Map-MR-HYDE-Active-search-details-" transform="translate(-877.000000, -1253.000000)" fill="#000000">
            <g id="DETAILS" transform="translate(809.000000, 87.000000)">
                <g id="Venue-info" transform="translate(1.000000, 1087.000000)">
                    <g id="phone" transform="translate(60.000000, 72.000000)">
                        <path d="M18.5,16.5 C17.5,17.5 17.5,18.5 16.5,18.5 C15.5,18.5 14.5,17.5 13.5,16.5 C12.5,15.5 11.5,14.5 11.5,13.5 C11.5,12.5 12.5,12.5 13.5,11.5 C14.5,10.5 11.5,7.5 10.5,7.5 C9.5,7.5 7.5,10.5 7.5,10.5 C7.5,12.5 9.555,16.555 11.5,18.5 C13.444,20.445 17.5,22.5 19.5,22.5 C19.5,22.5 22.5,20.5 22.5,19.5 C22.5,18.5 19.5,15.5 18.5,16.5" id="Shape"></path>
                    </g>
                </g>
            </g>
        </g>
    </g>
</svg>