<svg xmlns:rdf="http://www.w3.org/1999/02/22-rdf-syntax-ns#" xmlns="http://www.w3.org/2000/svg" height="100%" width="100%" version="1.1" xmlns:cc="http://creativecommons.org/ns#" xmlns:dc="http://purl.org/dc/elements/1.1/" viewBox="0 0 16 16">
 <metadata>
  <rdf:RDF>
   <cc:Work rdf:about="">
    <dc:format>image/svg+xml</dc:format>
    <dc:type rdf:resource="http://purl.org/dc/dcmitype/StillImage"/>
    <dc:title/>
   </cc:Work>
  </rdf:RDF>
 </metadata>
 <path d="m7.2415,9.3086c-0.14074,0-0.28148-0.053456-0.38906-0.16104-1.0055-1.0055-1.0055-2.6422,0-3.6484l2.0299-2.0299c0.4872-0.4872,1.1357-0.7558,1.8247-0.7558,0.68881,0,1.337,0.26862,1.8242,0.75579,1.0055,1.0061,1.0055,2.6422,0,3.6484l-0.92766,0.92766c-0.21449,0.21449-0.56295,0.21449-0.77744,0s-0.21449-0.56296,0-0.77745l0.92766-0.92766c0.57716-0.57716,0.57716-1.5163,0-2.0935-0.27945-0.27945-0.65159-0.43372-1.0467-0.43372-0.39515,0-0.7673,0.15427-1.0467,0.43372l-2.0304,2.0298c-0.57716,0.57716-0.57716,1.5163,0,2.0935,0.21449,0.21449,0.21449,0.56295,0,0.77745-0.1076,0.1075-0.2483,0.161-0.3891,0.161z"/>
 <path d="m5.2935,13.286c-0.68881,0-1.337-0.26862-1.8242-0.75579-1.0055-1.0055-1.0055-2.6422,0-3.6484l0.9277-0.9269c0.21449-0.21449,0.56295-0.21449,0.77745,0,0.21449,0.21449,0.21449,0.56296,0,0.77745l-0.9277,0.9276c-0.57716,0.57716-0.57716,1.5163,0,2.0935,0.27945,0.27945,0.65092,0.43372,1.0467,0.43372,0.39583,0,0.7673-0.15427,1.0467-0.43372l2.03-2.0296c0.57716-0.57716,0.57716-1.5163,0-2.0935-0.21449-0.21449-0.21449-0.56296,0-0.77745s0.56295-0.21449,0.77745,0c1.0055,1.0055,1.0055,2.6422,0,3.6484l-2.0299,2.03c-0.4872,0.487-1.1354,0.755-1.8242,0.755z"/>
</svg>
